<?xml version="1.0" encoding="utf-8"?>
<!-- Generator: Adobe Illustrator 18.1.1, SVG Export Plug-In . SVG Version: 6.00 Build 0)  -->
<!DOCTYPE svg PUBLIC "-//W3C//DTD SVG 1.1//EN" "http://www.w3.org/Graphics/SVG/1.1/DTD/svg11.dtd">
<svg version="1.1" id="Layer_1" xmlns="http://www.w3.org/2000/svg" xmlns:xlink="http://www.w3.org/1999/xlink" x="0px" y="0px"
	 viewBox="0 0 24 24" enable-background="new 0 0 24 24" xml:space="preserve" fill="#14B18A">
<path d="M15.3,14.7C16.1,10.9,14.7,4,12,4c-2.7,0-4.2,6.7-3.4,10.5L7,18h2.7l0.3,1h4c0.2-0.3,0.1-0.5,0.3-1H17L15.3,14.7z M12,10
	c-0.8,0-1.5-0.7-1.5-1.5S11.2,7,12,7s1.5,0.7,1.5,1.5S12.8,10,12,10z"/>
<path d="M14,20c0,1.1-2,2-2,2s-2-0.9-2-2"/>
</svg>
