<?xml version="1.0" encoding="utf-8"?>
<!-- Generator: Adobe Illustrator 16.0.4, SVG Export Plug-In . SVG Version: 6.00 Build 0)  -->
<!DOCTYPE svg PUBLIC "-//W3C//DTD SVG 1.1//EN" "http://www.w3.org/Graphics/SVG/1.1/DTD/svg11.dtd">
<svg version="1.1" id="Layer_1" xmlns="http://www.w3.org/2000/svg" xmlns:xlink="http://www.w3.org/1999/xlink" x="0px" y="0px"
	 width="24px" height="24px" viewBox="0 0 24 24" enable-background="new 0 0 24 24" xml:space="preserve" fill="#14B18A">
<g transform="matrix(1 0 0 -1 0 1638)">
	<path d="M16.617,1621.195v4.066h2.391v-6.457H6.41c-0.414,0-0.762,0.141-1.043,0.422s-0.422,0.629-0.422,1.043v4.992h2.391v-3.012
		c0-0.297,0.102-0.547,0.305-0.75s0.453-0.305,0.75-0.305H16.617z M13.113,1628.719v-5.965h-0.879
		c-0.406,0.008-0.75,0.152-1.031,0.434s-0.426,0.625-0.434,1.031v4.5H7.629l4.5,4.875l4.125-4.875H13.113z"/>
</g>
</svg>
