<?xml version="1.0" encoding="utf-8"?>
<!-- Generator: Adobe Illustrator 16.0.4, SVG Export Plug-In . SVG Version: 6.00 Build 0)  -->
<!DOCTYPE svg PUBLIC "-//W3C//DTD SVG 1.1//EN" "http://www.w3.org/Graphics/SVG/1.1/DTD/svg11.dtd">
<svg version="1.1" id="Layer_1" xmlns="http://www.w3.org/2000/svg" xmlns:xlink="http://www.w3.org/1999/xlink" x="0px" y="0px"
	 width="24px" height="24px" viewBox="0 0 24 24" enable-background="new 0 0 24 24" xml:space="preserve" fill="#14B18A">
<g transform="matrix(1 0 0 -1 0 1638)">
	<path d="M12.293,1635.211h1.02v-6.281h3.586l-4.723-5.59l-5.156,5.602h3.586v4.582c0.008,0.469,0.176,0.867,0.504,1.195
		S11.832,1635.211,12.293,1635.211z M3.914,1626.234h2.754v-3.469c0-0.344,0.117-0.633,0.352-0.867s0.52-0.352,0.855-0.352h9.457
		v4.676h2.754v-7.418H5.602c-0.469,0-0.867,0.164-1.195,0.492s-0.492,0.723-0.492,1.184V1626.234z"/>
</g>
</svg>
