<?xml version="1.0" encoding="utf-8"?>
<!-- Generator: Adobe Illustrator 18.1.1, SVG Export Plug-In . SVG Version: 6.00 Build 0)  -->
<svg version="1.1" xmlns="http://www.w3.org/2000/svg" xmlns:xlink="http://www.w3.org/1999/xlink" x="0px" y="0px"
	 viewBox="0 0 24 24" enable-background="new 0 0 24 24" xml:space="preserve" fill="#14B18A">
<g id="Layer_1">
	<g>
		<circle cx="11.5" cy="8.5" r="2.5"/>
		<path d="M16.3,8.7L17,8l-0.8-0.8l0.4-0.8l-1.1-0.5l0.1-0.9l-1.2-0.2l-0.1-0.9l-1.2,0.2l-0.4-0.8l-1.1,0.5L11,3l-0.8,0.8L9.3,3.4
			L8.8,4.5L7.9,4.3L7.7,5.5L6.8,5.7l0.2,1.2L6.1,7.3l0.5,1.1L6,9l0.8,0.8l-0.4,0.8l1.1,0.5l-0.1,0.9l1.2,0.2l0.1,0.9l1.2-0.2
			l0.4,0.8l1.1-0.5L12,14l0.8-0.8l0.8,0.4l0.5-1.1l0.9,0.1l0.2-1.2l0.9-0.1l-0.2-1.2l0.8-0.4L16.3,8.7z M11.5,12
			C9.6,12,8,10.4,8,8.5S9.6,5,11.5,5S15,6.6,15,8.5S13.4,12,11.5,12z"/>
		<polygon points="12,15 11.3,14.3 10.2,14.9 9.8,14.2 9,14.5 9,23 11.5,20 14,23 14,14.5 13,14 		"/>
	</g>
</g>
<g id="Layer_2">
</g>
</svg>
